<?xml version="1.0" standalone="no"?>
<!DOCTYPE svg PUBLIC "-//W3C//DTD SVG 20010904//EN"
 "http://www.w3.org/TR/2001/REC-SVG-20010904/DTD/svg10.dtd">
<svg version="1.0" xmlns="http://www.w3.org/2000/svg"
 width="256.000000pt" height="256.000000pt" viewBox="0 0 256.000000 256.000000"
 preserveAspectRatio="xMidYMid meet">
<metadata>
Created by potrace 1.11, written by Peter Selinger 2001-2013
</metadata>
<g transform="translate(0.000000,256.000000) scale(0.100000,-0.100000)"
fill="#000000" stroke="none">
<path d="M348 2541 c-166 -53 -285 -196 -296 -356 -3 -38 -10 -73 -16 -77 -8
-6 -8 -8 0 -8 8 0 12 -237 13 -842 1 -464 2 -853 3 -865 1 -12 6 -19 12 -16 5
4 7 -1 3 -10 -4 -10 -2 -17 5 -17 7 0 6 -6 -2 -16 -11 -13 -10 -16 7 -20 15
-4 20 -13 18 -30 -2 -17 2 -24 10 -20 8 3 16 -2 19 -10 4 -10 2 -12 -6 -8 -7
4 -8 3 -4 -4 4 -7 14 -12 23 -12 12 0 13 -3 4 -14 -8 -10 -8 -16 2 -25 8 -6
17 -8 20 -4 9 8 47 -27 47 -44 0 -7 7 -13 16 -13 9 0 25 -9 35 -21 9 -11 20
-20 23 -20 20 3 26 0 20 -10 -4 -8 1 -7 15 1 19 10 22 9 19 -6 -2 -12 4 -18
20 -19 13 -1 25 2 28 7 7 12 24 10 24 -3 0 -5 -4 -8 -8 -5 -5 3 -9 -1 -9 -8 0
-10 9 -9 34 5 19 11 32 15 29 10 -4 -5 31 -8 84 -8 50 1 90 5 90 10 0 4 4 7 8
7 5 0 9 -7 9 -15 0 -8 -4 -12 -9 -9 -4 3 -8 0 -8 -5 0 -14 17 -14 26 0 3 6 17
8 31 4 14 -3 22 -2 20 2 -7 11 55 9 73 -2 21 -13 41 -15 34 -4 -3 5 -10 7 -15
4 -5 -4 -9 -2 -9 4 0 6 15 7 37 4 27 -5 34 -3 29 6 -6 10 -3 9 12 0 12 -7 18
-18 14 -24 -3 -5 2 -4 11 3 9 8 25 11 38 7 12 -4 19 -3 16 1 -3 5 33 9 79 9
46 -1 84 3 84 7 0 4 4 8 8 8 5 0 9 -7 9 -15 0 -8 -4 -12 -9 -9 -4 3 -8 0 -8
-5 0 -14 17 -14 26 0 3 6 17 8 31 4 14 -3 22 -2 20 2 -7 11 55 9 73 -2 21 -13
41 -15 34 -4 -3 5 -10 7 -15 4 -5 -4 -9 -2 -9 4 0 6 15 7 37 4 27 -5 34 -3 29
6 -6 10 -3 9 12 0 12 -7 18 -18 14 -24 -3 -5 2 -4 11 3 9 8 25 11 38 7 12 -4
19 -3 16 1 -3 5 33 9 79 9 46 -1 84 3 84 7 0 4 4 8 8 8 5 0 9 -7 9 -15 0 -8
-4 -12 -9 -9 -4 3 -8 0 -8 -5 0 -14 17 -14 26 0 3 6 17 8 31 4 14 -3 22 -2 20
2 -7 11 55 9 73 -2 21 -13 41 -15 34 -4 -3 5 -10 7 -15 4 -5 -4 -9 -2 -9 4 0
6 15 7 37 4 27 -5 34 -3 29 6 -6 10 -3 9 12 0 12 -7 18 -18 14 -24 -3 -5 2 -4
11 3 9 8 25 11 38 7 12 -4 19 -3 16 1 -3 5 33 9 79 9 52 -1 84 3 84 10 0 5 5
3 10 -5 9 -13 11 -13 21 0 8 12 9 11 5 -6 -4 -14 -2 -21 8 -21 9 0 12 5 9 10
-4 6 5 8 20 5 15 -3 24 -2 22 3 -3 4 -1 10 5 14 5 3 10 1 10 -5 0 -6 5 -8 10
-5 6 4 8 10 5 14 -2 5 7 6 20 3 15 -2 25 0 25 7 0 7 -5 9 -12 5 -7 -4 -8 -3
-4 4 4 6 13 9 21 6 8 -4 12 -11 8 -17 -3 -6 -1 -7 5 -3 7 4 12 15 12 24 1 15
3 14 16 -3 16 -20 16 -20 9 2 -5 18 -3 22 8 17 8 -3 18 0 23 7 5 8 3 10 -6 4
-9 -5 -11 -4 -6 3 5 9 13 9 29 0 20 -10 21 -10 8 5 -11 14 -11 17 0 18 8 1 18
1 23 0 5 -1 3 6 -5 15 -8 10 -9 15 -2 11 6 -4 14 -1 16 5 4 10 6 10 6 1 1 -7
6 -13 12 -13 5 0 8 4 4 9 -3 6 3 15 12 21 15 9 14 10 -7 4 -24 -6 -24 -6 -5 9
11 8 23 13 27 11 4 -3 5 2 2 10 -4 10 -1 16 9 16 8 0 18 7 21 16 6 15 4 15
-11 3 -17 -13 -17 -13 0 7 9 11 17 24 17 29 0 5 8 17 18 28 9 11 11 17 5 13
-13 -7 -8 17 7 39 4 6 6 18 5 28 -2 9 0 17 3 17 9 0 7 1746 -2 1794 -27 143
-146 270 -297 317 -58 18 -104 19 -932 18 -817 0 -876 -1 -929 -18z"/>
<path d="M176 165 c4 -8 11 -15 16 -15 6 0 5 6 -2 15 -7 8 -14 15 -16 15 -2 0
-1 -7 2 -15z"/>
<path d="M436 42 c-3 -5 1 -9 9 -9 8 0 12 4 9 9 -3 4 -7 8 -9 8 -2 0 -6 -4 -9
-8z"/>
<path d="M506 38 c3 -4 9 -8 15 -8 5 0 9 4 9 8 0 5 -7 9 -15 9 -8 0 -12 -4 -9
-9z"/>
<path d="M550 39 c0 -5 5 -7 10 -4 6 3 10 8 10 11 0 2 -4 4 -10 4 -5 0 -10 -5
-10 -11z"/>
<path d="M596 38 c3 -5 10 -6 15 -3 13 9 11 12 -6 12 -8 0 -12 -4 -9 -9z"/>
<path d="M746 38 c7 -10 24 -10 24 0 0 5 -7 9 -15 9 -8 0 -12 -4 -9 -9z"/>
<path d="M855 41 c-3 -5 -2 -12 3 -15 5 -3 9 1 9 9 0 17 -3 19 -12 6z"/>
<path d="M986 38 c7 -10 24 -10 24 0 0 5 -7 9 -15 9 -8 0 -12 -4 -9 -9z"/>
<path d="M1030 39 c0 -5 5 -7 10 -4 6 3 10 8 10 11 0 2 -4 4 -10 4 -5 0 -10
-5 -10 -11z"/>
<path d="M1076 38 c3 -5 10 -6 15 -3 13 9 11 12 -6 12 -8 0 -12 -4 -9 -9z"/>
<path d="M1226 38 c7 -10 24 -10 24 0 0 5 -7 9 -15 9 -8 0 -12 -4 -9 -9z"/>
<path d="M1335 41 c-3 -5 -2 -12 3 -15 5 -3 9 1 9 9 0 17 -3 19 -12 6z"/>
<path d="M1466 38 c3 -4 9 -8 15 -8 5 0 9 4 9 8 0 5 -7 9 -15 9 -8 0 -12 -4
-9 -9z"/>
<path d="M1510 39 c0 -5 5 -7 10 -4 6 3 10 8 10 11 0 2 -4 4 -10 4 -5 0 -10
-5 -10 -11z"/>
<path d="M1556 38 c3 -5 10 -6 15 -3 13 9 11 12 -6 12 -8 0 -12 -4 -9 -9z"/>
<path d="M1706 38 c3 -4 9 -8 15 -8 5 0 9 4 9 8 0 5 -7 9 -15 9 -8 0 -12 -4
-9 -9z"/>
<path d="M1815 41 c-3 -5 -2 -12 3 -15 5 -3 9 1 9 9 0 17 -3 19 -12 6z"/>
<path d="M1946 38 c3 -4 9 -8 15 -8 5 0 9 4 9 8 0 5 -7 9 -15 9 -8 0 -12 -4
-9 -9z"/>
<path d="M1990 39 c0 -5 5 -7 10 -4 6 3 10 8 10 11 0 2 -4 4 -10 4 -5 0 -10
-5 -10 -11z"/>
<path d="M2036 38 c3 -5 10 -6 15 -3 13 9 11 12 -6 12 -8 0 -12 -4 -9 -9z"/>
</g>
</svg>
